<svg width="42" height="43" viewBox="0 0 42 43" fill="none" xmlns="http://www.w3.org/2000/svg">
<path d="M29.3143 10.9851V23.7151H12.6858V10.9851C12.6858 5.83655 16.4129 1.65332 21.0001 1.65332C25.5423 1.65332 29.3143 5.78634 29.3143 10.9851Z" fill="#C7C7C7"/>
<path d="M24.28 15.1128V18.6795C24.28 20.5391 22.8146 22.0394 21.0069 22.0394C19.1993 22.0394 17.7251 20.5391 17.7251 18.6795V15.1128C17.7251 14.5558 18.1726 14.0977 18.7167 14.0977H23.2884C23.8325 14.0976 24.28 14.5558 24.28 15.1128Z" fill="#E5A35A"/>
<path d="M21.0001 17.4861C17.8075 17.4861 15.2085 13.9464 15.2085 9.57013C15.2085 9.00378 15.2494 8.46312 15.3313 7.93543C15.6075 7.94831 16.3033 7.9612 17.2038 7.84532H17.2448C18.6875 7.63941 20.642 7.11163 22.2177 5.73438C22.2985 5.76962 23.9262 7.8763 26.5768 7.4463C27.5766 12.117 25.0552 17.4861 21.0001 17.4861Z" fill="#FFBC74"/>
<path opacity="0.04" d="M21.0014 17.4834C19.2729 17.4834 17.7221 16.4497 16.6641 14.8041C17.399 15.2672 18.2229 15.5236 19.0791 15.5236C22.8326 15.5236 25.2264 10.7225 24.8621 7.37012C25.3091 7.48824 25.946 7.54359 26.5744 7.44452C27.5841 12.0966 25.0591 17.4834 21.0014 17.4834Z" fill="black"/>
<path d="M35.1011 19.5271V40.2084C27.3796 35.4205 21.3461 39.8611 21.0796 41.3496H20.918C20.6595 39.8611 14.618 35.4288 6.89648 40.2084V19.5271C6.89648 19.5271 6.89648 19.5271 6.90457 19.5188C11.6053 17.8815 16.298 18.3032 20.9988 20.8006C25.6996 18.295 30.3923 17.8815 35.093 19.5188C35.1011 19.5271 35.1011 19.5271 35.1011 19.5271Z" fill="#E4F1FF"/>
<path opacity="0.04" d="M35.1011 19.5272V40.2085C27.3796 35.4289 21.338 39.8612 21.0796 41.3497H20.918C20.6595 39.8612 14.618 35.4289 6.89648 40.2085V35.1891C21.5396 35.2031 12.5765 35.1647 26.5638 35.2139C29.4634 35.2222 31.8219 32.8241 31.8219 29.8555V18.7168C32.9123 18.8656 34.0026 19.1385 35.093 19.5189C35.1011 19.5272 35.1011 19.5272 35.1011 19.5272Z" fill="black"/>
<path d="M36.4284 28.9684V31.7461C36.4284 32.316 36.0059 32.7779 35.4847 32.7779H32.694C31.469 32.7779 30.48 31.6886 30.48 30.3572C30.48 29.6875 30.7235 29.0823 31.1294 28.6466C31.528 28.2028 32.0815 27.9365 32.694 27.9365H35.4847C36.0059 27.9365 36.4284 28.3985 36.4284 28.9684Z" fill="white"/>
<path opacity="0.04" d="M36.4284 28.9692V31.7477C36.4284 32.3182 36.0083 32.7813 35.4834 32.7813H32.6968C31.6226 32.7813 30.7422 31.9461 30.5322 30.8546C30.6372 30.8794 30.7422 30.8877 30.8472 30.8877H33.6418C34.1587 30.8877 34.5788 30.4246 34.5788 29.854V27.9355H35.4834C36.0083 27.9355 36.4284 28.3986 36.4284 28.9692Z" fill="black"/>
<path d="M5.57178 28.9684V31.7461C5.57178 32.316 5.99431 32.7779 6.51552 32.7779H9.30616C10.5313 32.7779 11.5202 31.6886 11.5202 30.3572C11.5202 29.6875 11.2767 29.0823 10.8708 28.6466C10.4722 28.2028 9.91873 27.9365 9.30616 27.9365H6.51552C5.99431 27.9365 5.57178 28.3985 5.57178 28.9684Z" fill="white"/>
<path opacity="0.04" d="M11.5191 30.3585C11.5191 31.6899 10.5337 32.7814 9.30599 32.7814H6.51945C5.99448 32.7814 5.57446 32.3183 5.57446 31.7478V30.8051H7.89254C9.12025 30.8051 10.1056 29.7218 10.1056 28.3905C10.1056 28.2912 10.0976 28.192 10.0895 28.0928C10.3883 28.2086 10.6549 28.3987 10.8729 28.6468C11.2768 29.0851 11.5191 29.6887 11.5191 30.3585Z" fill="black"/>
<path d="M35.9076 27.1709V19.5286C35.9076 19.317 35.8217 19.1059 35.6789 18.9524C35.589 18.8551 35.4778 18.7816 35.3531 18.7384C33.6158 18.1317 31.8696 17.8021 30.1221 17.7381V10.9856C30.1221 5.38411 26.03 0.827148 21 0.827148C15.9701 0.827148 11.878 5.38411 11.878 10.9856V17.7382C10.1312 17.8024 8.38571 18.132 6.6493 18.7384C6.52467 18.7816 6.40636 18.8628 6.31644 18.9601C6.17367 19.1135 6.0948 19.317 6.0948 19.5286V27.1701C5.33281 27.3714 4.76416 28.0983 4.76416 28.9688V31.7463C4.76416 32.6168 5.33281 33.3437 6.0948 33.545V40.2077C6.0948 40.5061 6.25177 40.7815 6.50575 40.9281C6.75973 41.075 7.07129 41.0698 7.32054 40.9151C9.50619 39.5605 11.7163 38.8737 13.8901 38.8737C17.6872 38.8737 19.9786 40.9636 20.1269 41.4933C20.1963 41.887 20.5315 42.1733 20.922 42.1733H21C21.0005 42.1733 21.0008 42.173 21.0012 42.173L21.0024 42.1733H21.0805C21.4709 42.1733 21.8038 41.8963 21.8732 41.5026C22.0238 40.9636 24.3152 38.8737 28.1123 38.8737C30.2861 38.8737 32.4962 39.5605 34.6819 40.9151C34.9311 41.069 35.2427 41.0742 35.4967 40.9281C35.7507 40.7815 35.9076 40.5061 35.9076 40.2077V33.5442C36.6684 33.3421 37.2359 32.6159 37.2359 31.7463V28.9688C37.2359 28.0992 36.6684 27.373 35.9076 27.1709ZM35.6205 31.7463C35.6205 31.8638 35.5487 31.9514 35.4849 31.9514H32.6942C31.9189 31.9514 31.2879 31.2364 31.2879 30.3574C31.2879 29.514 31.8856 28.7637 32.6942 28.7637H35.4849C35.5487 28.7637 35.6205 28.8513 35.6205 28.9688V31.7463ZM21 2.48099C25.1395 2.48099 28.5067 6.29623 28.5067 10.9856V17.7569C27.3657 17.8242 26.2253 18.0036 25.0874 18.3016V16.4561C25.2467 16.2889 25.401 16.1119 25.5488 15.9237C27.3007 13.6941 28.0137 10.2968 27.3653 7.26891C27.2738 6.84132 26.8716 6.55989 26.4504 6.62934C25.1631 6.83809 23.9508 6.36284 22.8781 5.23794C22.7826 5.1374 22.6919 5.04211 22.535 4.97347C22.2518 4.85113 21.9276 4.9012 21.6934 5.1051C20.0313 6.55757 17.5072 7.20531 15.3683 7.10902C14.9566 7.09448 14.5977 7.38924 14.5338 7.80512C14.4439 8.38131 14.4005 8.9587 14.4005 9.57001C14.4005 12.3489 15.3873 14.8235 16.9174 16.426V18.3022C15.7779 18.0037 14.6359 17.8239 13.4934 17.7567V10.9856C13.4934 6.29623 16.8606 2.48099 21 2.48099ZM21.0013 19.8771C20.1846 19.4612 19.3652 19.1016 18.5438 18.8064C18.5412 18.7638 18.5328 18.7229 18.5328 18.6795V17.673C19.2959 18.0822 20.1275 18.3129 21 18.3129C21.8635 18.3129 22.6999 18.0994 23.472 17.6927V18.6795C23.472 18.7226 23.4636 18.7633 23.461 18.8057C22.6389 19.1011 21.8189 19.4609 21.0013 19.8771ZM24.29 14.8873C23.655 15.6956 22.5681 16.659 21 16.659C18.252 16.659 16.0158 13.4789 16.0158 9.57001C16.0158 9.29463 16.0261 9.02774 16.0466 8.7653C18.2041 8.70248 20.4404 8.07571 22.1658 6.82275C23.5469 8.05668 24.9202 8.33084 25.8675 8.33084C25.8817 8.33084 25.8959 8.33084 25.9093 8.33084C26.2209 10.6937 25.6143 13.2019 24.29 14.8873ZM6.51521 31.9514C6.45132 31.9514 6.37954 31.8638 6.37954 31.7463V28.9688C6.37954 28.8513 6.45132 28.7637 6.51521 28.7637H9.30585C10.1155 28.7637 10.7122 29.5202 10.7122 30.3573C10.7122 31.2364 10.0812 31.9514 9.30585 31.9514L6.51521 31.9514ZM20.1923 39.202C18.7876 38.1316 16.5325 37.2198 13.8901 37.2198C11.8299 37.2198 9.75702 37.7528 7.71019 38.8055V33.6053H9.30585C10.9717 33.6053 12.3276 32.1481 12.3276 30.3574C12.3276 28.5147 10.9378 27.1098 9.30585 27.1098H7.71019V20.1246C11.8717 18.8192 16.0387 19.2169 20.1923 21.3064V39.202ZM28.1123 37.2198C25.4699 37.2198 23.2149 38.1316 21.8101 39.202V21.3064C25.9645 19.2169 30.1307 18.8192 34.2922 20.1246V27.1098H32.6942C30.9993 27.1098 29.6725 28.5792 29.6725 30.3574C29.6725 32.1481 31.0283 33.6053 32.6942 33.6053H34.2922V38.8055C32.2454 37.7528 30.1726 37.2198 28.1123 37.2198Z" fill="#293C66"/>
</svg>
