<svg width="32" height="32" viewBox="0 0 32 32" fill="none" xmlns="http://www.w3.org/2000/svg">
<g clip-path="url(#clip0_1581_223)">
<path d="M13.3334 27.5554C13.3334 29.5189 12.6303 31.1109 10.6667 31.1109H4.4445C0.888943 31.1109 0.888943 18.6665 4.4445 18.6665H10.6667C12.6303 18.6665 13.3334 20.2585 13.3334 22.2221V27.5554Z" fill="#553788"/>
<path d="M30.2222 29.3332H29.3333V20.4443H30.2222C30.4579 20.4443 30.684 20.3506 30.8507 20.1839C31.0174 20.0172 31.1111 19.7911 31.1111 19.5554C31.1111 19.3196 31.0174 19.0936 30.8507 18.9269C30.684 18.7602 30.4579 18.6665 30.2222 18.6665H8.88883C5.33328 18.6665 5.33328 31.1109 8.88883 31.1109H30.2222C30.4579 31.1109 30.684 31.0173 30.8507 30.8506C31.0174 30.6839 31.1111 30.4578 31.1111 30.2221C31.1111 29.9863 31.0174 29.7602 30.8507 29.5935C30.684 29.4268 30.4579 29.3332 30.2222 29.3332Z" fill="#9266CC"/>
<path d="M30.375 29.3332H9.77767C7.99989 29.3332 7.99989 20.4443 9.77767 20.4443H30.375C31.3563 20.4443 31.3563 29.3332 30.375 29.3332Z" fill="#CCD6DD"/>
<path d="M10.2224 22.2221H30.978C30.858 21.1777 30.658 20.4443 30.3753 20.4443H9.77797C8.31041 20.4443 8.0553 26.4959 9.01085 28.6114C8.66241 25.9812 9.06597 22.2221 10.2224 22.2221Z" fill="#99AAB5"/>
<path d="M10.6664 7.11089C10.6664 8.05389 10.2918 8.95826 9.62505 9.62505C8.95826 10.2918 8.05389 10.6664 7.11089 10.6664H3.55534C-0.000217021 10.6664 -0.000217021 0.888672 3.55534 0.888672H7.11089C8.05389 0.888672 8.95826 1.26327 9.62505 1.93007C10.2918 2.59687 10.6664 3.50124 10.6664 4.44423V7.11089Z" fill="#226699"/>
<path d="M27.5557 8.88867H26.6668V2.66645H27.5557C27.7914 2.66645 28.0175 2.5728 28.1842 2.4061C28.3509 2.2394 28.4446 2.01331 28.4446 1.77756C28.4446 1.54181 28.3509 1.31572 28.1842 1.14902C28.0175 0.982322 27.7914 0.888672 27.5557 0.888672H6.22233C2.66678 0.888672 2.66678 10.6664 6.22233 10.6664H27.5557C27.7914 10.6664 28.0175 10.5728 28.1842 10.4061C28.3509 10.2394 28.4446 10.0133 28.4446 9.77756C28.4446 9.54181 28.3509 9.31572 28.1842 9.14902C28.0175 8.98232 27.7914 8.88867 27.5557 8.88867Z" fill="#55ACEE"/>
<path d="M27.7085 8.88873H7.11117C5.33339 8.88873 5.33339 2.6665 7.11117 2.6665H27.7085C28.6898 2.6665 28.6898 8.88873 27.7085 8.88873Z" fill="#CCD6DD"/>
<path d="M7.11122 4.44428H28.3779C28.2765 3.44428 28.0543 2.6665 27.7085 2.6665H7.11122C6.05077 2.6665 5.62766 4.87895 5.83299 6.6665C5.97166 5.45939 6.39388 4.44428 7.11122 4.44428Z" fill="#99AAB5"/>
<path d="M17.7776 15.1109C17.7776 16.0539 17.403 16.9583 16.7362 17.6251C16.0694 18.2919 15.1651 18.6665 14.2221 18.6665H5.33317C1.77762 18.6665 1.77762 10.6665 5.33317 10.6665H14.2221C15.1651 10.6665 16.0694 11.0411 16.7362 11.7079C17.403 12.3747 17.7776 13.2791 17.7776 14.2221V15.1109Z" fill="#F4900C"/>
<path d="M31.1109 16.8887H30.2221V12.4443H31.1109C31.3467 12.4443 31.5728 12.3506 31.7395 12.1839C31.9062 12.0172 31.9998 11.7911 31.9998 11.5554C31.9998 11.3196 31.9062 11.0936 31.7395 10.9269C31.5728 10.7602 31.3467 10.6665 31.1109 10.6665H13.3332C9.77762 10.6665 9.77762 18.6665 13.3332 18.6665H31.1109C31.3467 18.6665 31.5728 18.5729 31.7395 18.4062C31.9062 18.2395 31.9998 18.0134 31.9998 17.7776C31.9998 17.5419 31.9062 17.3158 31.7395 17.1491C31.5728 16.9824 31.3467 16.8887 31.1109 16.8887Z" fill="#FFAC33"/>
<path d="M31.2638 16.8888H14.222C12.4442 16.8888 12.4442 12.4443 14.222 12.4443H31.2638C32.2451 12.4443 32.2451 16.8888 31.2638 16.8888Z" fill="#CCD6DD"/>
<path d="M14.2223 14.2221H31.9859C31.9281 13.2781 31.689 12.4443 31.2641 12.4443H14.2223C13.0899 12.4443 12.6819 14.2461 12.993 15.5554C13.169 14.8097 13.577 14.2221 14.2223 14.2221Z" fill="#99AAB5"/>
</g>
<defs>
<clipPath id="clip0_1581_223">
<rect width="32" height="32" fill="white"/>
</clipPath>
</defs>
</svg>
