<svg width="536" height="552" viewBox="0 0 536 552" fill="none" xmlns="http://www.w3.org/2000/svg">
<path fill-rule="evenodd" clip-rule="evenodd" d="M402.362 441.102V441.102L398.943 442.34L395.619 443.56L392.391 444.767L389.258 445.969L386.222 447.171L383.281 448.379L380.434 449.596L377.679 450.829L375.013 452.081L372.434 453.357L369.939 454.66L367.522 455.994L365.182 457.36L362.912 458.761L360.709 460.2L358.568 461.677L356.483 463.194L354.45 464.751L352.463 466.348L350.517 467.985L348.608 469.662L346.729 471.378L344.877 473.131L343.046 474.921L341.231 476.745L339.428 478.603L337.633 480.492L335.841 482.41L334.05 484.356L332.255 486.328L330.453 488.324L328.642 490.342L326.818 492.382L324.98 494.442L323.125 496.521L321.251 498.616L319.354 500.725L317.434 502.847L315.487 504.978L313.511 507.116L311.505 509.256L309.466 511.397L307.393 513.533L305.283 515.66L303.136 517.775L300.949 519.873L298.722 521.948L296.454 523.996L294.143 526.012L291.79 527.99L289.395 529.925L286.957 531.81L284.476 533.641L281.953 535.41L279.39 537.114L276.786 538.745L274.144 540.298L271.466 541.767L268.753 543.147L266.007 544.433L263.232 545.619L260.43 546.7L257.604 547.672L254.757 548.531L251.894 549.272L249.017 549.893L246.13 550.39L243.239 550.76L240.345 551.003L237.455 551.115L234.572 551.097L231.7 550.948L228.843 550.668L226.006 550.258L223.193 549.72L220.407 549.055L217.652 548.267L214.932 547.359L212.25 546.335L209.608 545.198L207.01 543.955L204.459 542.608L201.955 541.162L199.503 539.622L197.103 537.992L194.757 536.277L192.467 534.482L190.234 532.611L188.058 530.669L185.941 528.663L183.883 526.597L181.883 524.478L179.942 522.31L178.059 520.099L176.233 517.852L174.462 515.574L172.746 513.272L171.082 510.951L169.467 508.616L167.901 506.275L166.379 503.932L164.9 501.593L163.46 499.262L162.056 496.944L160.685 494.643L159.344 492.364L158.029 490.109L156.737 487.882L155.464 485.686L154.208 483.523L152.963 481.397L151.726 479.31L150.493 477.265L149.259 475.264L148.021 473.309L146.773 471.401L145.513 469.542L144.234 467.733L142.934 465.975L141.608 464.268L140.252 462.612L138.861 461.007L137.433 459.452L135.963 457.946L134.448 456.489L132.885 455.077L131.271 453.71L129.604 452.385L127.88 451.099L126.099 449.849L124.258 448.632L122.355 447.445L120.391 446.283L118.364 445.142L116.275 444.019L114.122 442.91L111.908 441.808L109.633 440.711L107.297 439.613L104.903 438.51L102.453 437.396L99.9495 436.267L97.3944 435.119L94.7909 433.946L92.1423 432.744L89.4522 431.509L86.7242 430.236L83.9624 428.921L81.1708 427.561L78.3538 426.15L75.5158 424.687L72.6613 423.167L69.795 421.588L66.9218 419.947L64.0466 418.24L61.1747 416.465L58.3113 414.621L55.4617 412.705L52.6312 410.716L49.8251 408.651L47.0487 406.511L44.3072 404.295L41.6057 402L38.9491 399.629L36.3425 397.18L33.7905 394.654L31.2978 392.051L28.869 389.372L26.5085 386.618L24.2206 383.791L22.0098 380.891L19.8802 377.921L17.8362 374.882L15.8818 371.777L14.0215 368.607L12.2596 365.374L10.6007 362.083L9.0494 358.734L7.61062 355.333L6.28939 351.88L5.09042 348.382L4.01801 344.84L3.07596 341.259L2.26763 337.644L1.59589 333.999L1.0631 330.329L0.671156 326.638L0.421476 322.931L0.314984 319.213L0.35214 315.489L0.532912 311.764L0.856853 308.042L1.32303 304.329L1.93014 300.63L2.67644 296.948L3.5598 293.289L4.57773 289.657L5.72737 286.056L7.00556 282.49L8.40881 278.963L9.93341 275.48L11.5754 272.042L13.3304 268.653L15.1941 265.317L17.1618 262.036L19.2288 258.812L21.3902 255.648L23.641 252.546L25.9761 249.506L28.3904 246.531L30.8786 243.621L33.4356 240.777L36.0563 238L38.7354 235.291L41.4678 232.648L44.2485 230.072L47.0726 227.562L49.9351 225.118L52.8313 222.739L55.7566 220.423L58.7065 218.169L61.6765 215.975L64.6626 213.84L67.6606 211.761L70.6668 209.736L73.6774 207.764L76.6886 205.841L79.6966 203.964L82.6974 202.13L85.6871 200.334L88.6618 198.573L91.6176 196.84L94.5511 195.133L97.4587 193.444L100.337 191.769L103.184 190.102L105.996 188.437L108.772 186.767L111.508 185.087L114.205 183.39L116.861 181.67L119.475 179.921L122.047 178.136L124.577 176.309L127.066 174.434L129.515 172.506L131.925 170.519L134.298 168.467L136.636 166.345L138.942 164.148L141.219 161.872L143.471 159.513L145.7 157.066L147.912 154.528L150.11 151.897L152.299 149.17L154.484 146.345L156.671 143.423L158.864 140.403L161.07 137.284L163.294 134.07L165.542 130.76L167.821 127.359L170.135 123.868L172.49 120.294L174.894 116.639L177.35 112.909L179.864 109.11L182.442 105.25L185.088 101.334L187.807 97.3705L190.603 93.3678L193.48 89.3345L196.441 85.2794L199.49 81.212L202.629 77.1419L205.861 73.0792L209.186 69.0339L212.606 65.0164L216.122 61.0372L219.734 57.1065L223.441 53.235L227.243 49.433L231.138 45.7107L235.124 42.0782L239.199 38.5453L243.361 35.1216L247.606 31.8164L251.93 28.6384L256.329 25.5961L260.8 22.6974L265.336 19.9498L269.934 17.3603L274.588 14.935L279.292 12.6799L284.04 10.6L288.828 8.69993L293.648 6.98341L298.494 5.45372L303.362 4.11349L308.244 2.96484L313.134 2.00945L318.026 1.24852L322.914 0.682721L327.792 0.312295L332.653 0.136983L337.493 0.15607L342.304 0.36839L347.083 0.772345L351.822 1.36591L356.517 2.14666L361.163 3.11182L365.755 4.25825L370.288 5.5825L374.758 7.08087L379.16 8.74937L383.491 10.5839L387.747 12.58L391.925 14.7334L396.019 17.0395L400.029 19.4938L403.95 22.0918L407.78 24.8291L411.515 27.7012L415.153 30.7042L418.691 33.8341L422.127 37.0869L425.457 40.4584L428.679 43.944L431.793 47.5386L434.796 51.2369L437.688 55.0333L440.469 58.9215L443.137 62.8955L445.695 66.9486L448.142 71.0741L450.481 75.265L452.713 79.5142L454.841 83.8146L456.868 88.1588L458.797 92.5396L460.633 96.9497L462.378 101.382L464.04 105.829L465.621 110.285L467.129 114.741L468.568 119.193L469.946 123.633L471.269 128.057L472.542 132.457L473.774 136.83L474.971 141.171L476.14 145.475L477.288 149.739L478.423 153.96L479.551 158.135L480.678 162.261L481.813 166.339L482.96 170.365L484.126 174.341L485.317 178.266L486.537 182.142L487.792 185.969L489.085 189.749L490.421 193.484L491.802 197.179L493.23 200.835L494.708 204.456L496.236 208.047L497.814 211.611L499.442 215.154L501.118 218.681L502.84 222.196L504.605 225.705L506.409 229.214L508.244 232.728L510.103 236.253L511.98 239.796L513.863 243.361L515.744 246.954L517.612 250.58L519.454 254.243L521.259 257.948L523.015 261.697L524.708 265.493L526.325 269.338L527.854 273.234L529.281 277.18L530.593 281.177L531.778 285.223L532.823 289.316L533.718 293.455L534.451 297.634L535.013 301.851L535.394 306.1L535.587 310.376L535.585 314.673L535.382 318.984L534.975 323.303L534.361 327.622L533.538 331.934L532.505 336.231L531.263 340.506L529.814 344.751L528.158 348.958L526.299 353.121L524.242 357.23L521.991 361.28L519.551 365.264L516.929 369.174L514.133 373.005L511.169 376.751L508.048 380.406L504.777 383.966L501.367 387.427L497.827 390.784L494.169 394.035L490.404 397.176L486.541 400.207L482.594 403.126L478.573 405.931L474.491 408.624L470.358 411.204L466.186 413.673L461.987 416.033L457.772 418.286L453.552 420.435L449.337 422.484L445.138 424.437L440.964 426.298L436.825 428.073L432.729 429.766L428.684 431.383L424.699 432.93L420.779 434.413L416.932 435.84L413.162 437.215L409.474 438.546L405.873 439.839L402.362 441.102" fill="#FFAD46"/>
</svg>
